<svg width="393" height="102" viewBox="0 0 393 102" fill="none" xmlns="http://www.w3.org/2000/svg">
<g clip-path="url(#clip0_101_8)" filter="url(#filter0_d_101_8)">
<path d="M40.2001 29.88C40.2001 29.88 37.9655 19.0545 40.0615 14.9602C42.1573 10.866 47.7171 11.9242 48.2366 13.902C48.7564 15.8797 49.0335 20.772 50.6095 20.8934C52.1858 21.0149 53.9006 21.8129 53.5021 23.0099C53.1037 24.207 50.4709 24.8662 50.3324 25.3867C50.1938 25.9071 51.2506 30.9382 51.2506 30.9382L40.2001 29.88Z" fill="#8157E4"/>
<path d="M44.6168 21.5179C45.0952 21.5179 45.4828 20.7489 45.4828 19.8004C45.4828 18.8518 45.0952 18.0829 44.6168 18.0829C44.1386 18.0829 43.7507 18.8518 43.7507 19.8004C43.7507 20.7489 44.1386 21.5179 44.6168 21.5179Z" fill="#121214"/>
<path d="M47.4398 22.0212C47.9182 22.0212 48.3058 21.2522 48.3058 20.3037C48.3058 19.3551 47.9182 18.5862 47.4398 18.5862C46.9613 18.5862 46.5737 19.3551 46.5737 20.3037C46.5737 21.2522 46.9613 22.0212 47.4398 22.0212Z" fill="#121214"/>
<path d="M44.0104 16.7991C44.9458 16.5909 46.6778 16.4 48.1675 17.2501C48.3232 17.3369 48.4965 17.146 48.3751 17.0073C47.6133 16.0531 46.037 14.752 43.8718 16.5041C43.7333 16.6082 43.8546 16.8338 44.0104 16.7991Z" fill="#121214"/>
<path d="M48.0289 24.3803C48.0808 24.2242 47.977 24.0507 47.8212 24.0334C47.0763 23.8946 45.0846 23.4435 43.5084 22.5067C43.5084 22.5067 43.7683 21.8474 43.1099 22.2464C42.4519 22.6455 43.8202 27.4684 46.401 26.6009C47.3015 26.2887 47.8212 24.9702 48.0289 24.3803Z" fill="#121214"/>
<path d="M42.1745 13.503C42.1745 13.503 40.7196 10.467 35.8525 10.467C30.9854 10.467 26.482 20.1128 22.0133 19.0545C17.5273 17.9963 20.9567 21.8303 23.4682 21.8303C23.4682 21.8303 23.3297 22.6284 22.2731 23.0274C21.2166 23.4264 24.2476 25.4041 26.7591 23.9468C26.7591 23.9468 26.6206 24.6061 25.8411 25.5256C25.0444 26.445 27.5559 27.2431 29.0108 24.7275C30.4657 22.212 34.1551 15.4808 38.641 16.0186C43.1099 16.539 42.1745 13.503 42.1745 13.503Z" fill="#8157E4"/>
<path d="M64.137 55.8335C64.137 55.8335 73.6632 66.416 72.4509 73.5289C71.2384 80.6417 63.271 79.4275 63.271 79.4275L56.5158 80.8153L53.9178 81.1623C53.9178 81.1623 55.6498 77.3456 53.0518 72.1411L61.8852 70.0592L55.3555 60.6737L64.137 55.8335Z" fill="white"/>
<path d="M37.0475 68.2376C38.312 70.7183 39.4898 73.6849 39.9055 76.6169C39.9402 76.877 39.5764 76.9813 39.4723 76.7382C38.7971 75.2289 37.6017 73.043 36.2509 72.8175C36.2509 72.8175 22.7407 72.4707 17.891 72.2971C13.0412 72.1236 12.868 88.0841 20.6623 90.166C28.4565 92.2479 27.9369 87.9109 27.9369 87.9109C27.9369 87.9109 24.1091 86.9219 22.4809 84.1634C22.3597 83.9553 22.6195 83.7123 22.81 83.8686C24.2996 85.0135 27.7983 87.3035 32.0766 87.5638C37.7922 87.9108 49.5702 85.1351 52.688 79.9303C54.8704 76.2874 50.4362 69.4173 47.5786 65.6178C48.3232 66.0342 49.1201 66.572 49.934 67.3007C50.2805 67.613 50.748 67.7345 51.1984 67.665L65.0031 65.3578L61.712 57.6548C58.1268 59.0601 54.4895 61.5758 49.934 63.9698C43.9585 67.1099 38.9356 68.0121 37.0475 68.2376Z" fill="white"/>
<path d="M22.8274 83.8858C24.3169 85.0308 27.8157 87.3207 32.0938 87.581C32.3365 87.5983 32.5961 87.5983 32.856 87.6155C27.3653 83.0704 27.781 75.3677 28.1275 72.6264C24.3342 72.5224 20.16 72.4011 17.891 72.3144C13.0412 72.1408 12.868 88.1014 20.6623 90.1833C28.4565 92.2652 27.9369 87.9278 27.9369 87.9278C27.9369 87.9278 24.1091 86.9391 22.4809 84.1806C22.3597 83.9551 22.6195 83.7295 22.8274 83.8858Z" fill="#464650"/>
<path d="M105.1 15.6714C102.658 12.7916 99.1765 10.7271 95.4006 9.23511C94.9677 10.3107 94.1017 11.2302 92.9411 11.4384C92.6121 11.4904 92.1098 11.7333 91.7633 11.768C91.6767 11.8201 91.59 11.8721 91.5034 11.9241C91.4862 11.9415 91.469 11.9415 91.4515 11.9588C91.3995 12.0109 91.2782 12.115 91.1571 12.167C90.932 12.3579 90.724 12.566 90.4988 12.7742C90.2217 13.0518 89.9446 13.3294 89.6847 13.6243C89.6503 13.659 89.6156 13.711 89.5809 13.7631C89.529 13.8672 89.477 13.9886 89.4076 14.0927C89.3385 14.3182 89.2519 14.5264 89.1999 14.7519C89.1652 14.9254 89.1305 15.0989 89.0961 15.2724C89.0786 15.55 89.0267 15.8275 89.0095 16.1051C88.9747 16.8164 88.9573 17.5277 88.9747 18.2216C88.992 19.5748 89.0439 20.928 88.94 22.2812C88.9228 22.6108 88.8534 22.9404 88.7668 23.2354C99.6268 25.7856 98.8994 33.1067 87.5023 34.6679C73.646 36.5763 58.4039 31.3718 58.4039 31.3718C58.4039 31.3718 37.3593 25.3866 26.967 30.938C16.5746 36.4895 11.4824 56.6311 23.6761 64.2474C39.0048 73.8237 54.1777 58.4182 65.4706 57.3598C64.6218 55.9373 65.0722 53.8729 66.1287 52.7104C66.4233 52.3808 66.8389 52.1205 67.2893 51.9297C67.2374 51.8605 67.168 51.7737 67.1161 51.7042C67.0641 51.6697 66.9084 51.4786 66.7698 51.3399C66.4924 51.0451 66.2153 50.7675 65.921 50.5072C64.847 49.5358 63.5134 48.6856 62.8379 47.3499C62.2837 46.2394 62.1623 45.112 62.6474 43.9495C63.0631 42.9781 63.981 41.8851 65.1069 41.7463C65.2974 41.7288 65.4879 41.6943 65.6611 41.6768C65.3149 41.6595 64.9684 41.6248 64.6218 41.6248L64.5699 41.0177C64.5699 41.0177 62.3184 38.1376 61.2097 35.8824C61.1233 35.7264 61.3482 35.5876 61.4696 35.7264C62.7168 37.357 65.3321 40.6013 66.995 41.3645C109.43 43.7759 113.761 25.907 105.1 15.6714ZM61.3829 41.7288C58.3173 42.0411 54.9918 42.9085 51.4064 44.4698C39.2819 49.7266 26.6898 50.1601 23.9012 46.0834C23.7973 45.9446 23.9705 45.7711 24.1091 45.8751C24.5248 46.1874 25.1137 46.517 25.8065 46.5517C25.8758 46.5517 25.9451 46.4997 25.9624 46.4305C26.101 45.5283 27.1055 40.2543 30.7082 37.357C30.8641 37.2357 31.0373 37.4437 30.9161 37.5825C30.2579 38.2767 29.5131 39.2306 29.0974 40.341C28.9415 40.7401 28.9589 41.1737 29.1494 41.538C29.9115 43.2208 32.2152 48.1653 32.4576 48.1825C33.9819 48.2865 37.8616 48.1305 44.4955 46.3609C51.5277 44.4873 56.3082 41.1912 61.3829 41.7288Z" fill="white"/>
<path d="M57.9363 60.5349C57.1914 60.5869 56.8104 61.4891 57.3127 62.0442C58.9062 63.831 60.95 67.4222 59.1142 72.835C56.6891 79.9826 14.5136 90.8774 4.20783 93.4449C3.89606 93.5317 3.948 94 4.2771 94L65.3321 93.8265C65.5747 93.8265 65.7999 93.792 66.0251 93.7224C70.5109 92.3172 111.613 78.213 119.199 70.0592C125.452 63.3627 116.064 58.609 112.894 57.256C112.288 56.9957 111.63 56.8917 110.972 56.9437L57.9363 60.5349Z" fill="url(#paint0_radial_101_8)"/>
<path d="M61.2097 64.4206C61.2963 64.6114 61.3482 64.6981 61.4176 64.8889C63.2707 64.7501 64.2062 64.6809 66.094 64.5246C66.0073 64.3513 65.9729 64.247 65.8863 64.0738C63.9982 64.2298 63.063 64.2993 61.2097 64.4206Z" fill="#04D361"/>
<path d="M64.1889 65.6181C64.2583 65.7914 64.2755 65.8781 64.345 66.0689C64.8819 66.0169 65.159 65.9997 65.7133 65.9477C65.6613 65.7741 65.6266 65.6874 65.5572 65.5138C65.003 65.5486 64.7259 65.5834 64.1889 65.6181Z" fill="#04D361"/>
<path d="M66.3019 65.4446C66.3711 65.6178 66.3886 65.7046 66.4577 65.8781C68.2245 65.7221 69.1252 65.6354 70.9611 65.4618C70.8919 65.2883 70.8744 65.219 70.8053 65.0455C68.9691 65.2015 68.0859 65.2883 66.3019 65.4446Z" fill="#6F33EA"/>
<path d="M71.7235 64.9587C71.7929 65.1323 71.8274 65.2015 71.8968 65.375C74.1483 65.167 76.3829 64.9587 78.6344 64.7332C78.5478 64.5772 78.5131 64.5076 78.4267 64.3516C76.1921 64.5424 73.9578 64.7504 71.7235 64.9587Z" fill="#6F33EA"/>
<path d="M62.3705 67.1616C62.4225 67.3351 62.4397 67.4219 62.4744 67.5955C62.9939 67.5432 63.271 67.5087 63.7908 67.4567C63.7561 67.2831 63.7389 67.1964 63.6867 67.0228C63.1499 67.0748 62.89 67.1096 62.3705 67.1616Z" fill="#04D361"/>
<path d="M64.4313 66.9539C64.466 67.1274 64.5008 67.2142 64.5355 67.3874C66.2675 67.2142 67.1507 67.1099 68.9694 66.9366C68.9347 66.7803 68.9175 66.6936 68.8655 66.52C67.0641 66.6936 66.1809 66.7803 64.4313 66.9539Z" fill="#6F33EA"/>
<path d="M77.855 65.6003C77.9245 65.7566 77.9417 65.8259 77.9936 65.9821C79.6046 65.8086 81.2325 65.6351 82.8435 65.4615C82.774 65.3228 82.7396 65.236 82.653 65.0972C80.7302 65.3228 79.7603 65.4095 77.855 65.6003Z" fill="#04D361"/>
<path d="M69.8007 66.416C69.8529 66.572 69.8701 66.6588 69.9048 66.8148C72.1563 66.5895 74.4253 66.3465 76.6771 66.1209C76.6249 65.9649 76.5905 65.8954 76.5386 65.7393C74.304 65.9649 72.0525 66.1904 69.8007 66.416Z" fill="#6F33EA"/>
<path d="M64.7604 69.4173C64.7604 69.5734 64.7604 69.6601 64.7604 69.8162C65.176 69.7641 65.384 69.7469 65.7997 69.6949C65.7997 69.5386 65.8169 69.4693 65.8169 69.313C65.384 69.3478 65.176 69.3653 64.7604 69.4173Z" fill="#04D361"/>
<path d="M66.5618 69.209C66.5618 69.365 66.5618 69.4346 66.5446 69.5906C68.3113 69.3823 69.2292 69.261 71.0998 69.0527C71.0998 68.8967 71.0998 68.8272 71.0998 68.6712C69.2465 68.8967 68.3285 69.0007 66.5618 69.209Z" fill="#6F33EA"/>
<path d="M80.0027 67.665C80.0199 67.8038 80.0371 67.8733 80.0371 68.0293C80.4528 67.9773 80.6607 67.9598 81.0764 67.9078C81.0592 67.769 81.0417 67.6998 81.0245 67.561C80.626 67.5955 80.4183 67.613 80.0027 67.665Z" fill="#AD92FF"/>
<path d="M72.0872 68.5672C72.0872 68.7235 72.0872 68.7927 72.0872 68.949C74.4429 68.6712 76.8158 68.3936 79.1714 68.1336C79.1539 67.9948 79.1539 67.9253 79.1367 67.7693C76.7811 68.0293 74.4429 68.2896 72.0872 68.5672Z" fill="#6F33EA"/>
<path d="M81.908 67.4394C81.9427 67.5782 81.9427 67.6477 81.9599 67.7865C84.4542 67.4914 86.9309 67.1967 89.4251 66.9016C89.3904 66.7628 89.3557 66.6936 89.3212 66.572C86.8442 66.8668 84.3847 67.1619 81.908 67.4394Z" fill="#6F33EA"/>
<path d="M63.8596 73.9799C63.773 74.1187 63.7211 74.188 63.6345 74.3267C64.0504 74.2575 64.2753 74.24 64.7084 74.1707C64.8123 74.0319 64.847 73.9624 64.9336 73.8236C64.5005 73.8932 64.2753 73.9277 63.8596 73.9799Z" fill="#04D361"/>
<path d="M65.9038 73.7199C65.8171 73.8587 65.7652 73.9107 65.6786 74.0495C67.4453 73.8067 68.3977 73.6676 70.3552 73.4076C70.4415 73.2861 70.4937 73.2168 70.5801 73.0781C68.6229 73.3381 67.6705 73.4596 65.9038 73.7199Z" fill="#6F33EA"/>
<path d="M80.1063 71.8805C80.0372 72.0021 80.0025 72.0713 79.9158 72.1929C80.3662 72.1408 80.5914 72.1061 81.059 72.0541C81.1284 71.9325 81.1628 71.8633 81.2322 71.7418C80.7818 71.7938 80.5567 71.8285 80.1063 71.8805Z" fill="#04D361"/>
<path d="M71.6021 72.939C71.5155 73.0778 71.4808 73.1298 71.377 73.2685C73.9059 72.939 76.4345 72.6267 78.9634 72.3144C79.05 72.1931 79.0847 72.1236 79.1539 72.002C76.6425 72.3144 74.131 72.6267 71.6021 72.939Z" fill="#6F33EA"/>
<path d="M82.1676 71.6205C82.0985 71.742 82.0638 71.8113 81.9944 71.9328C84.6966 71.6033 87.3985 71.2737 90.1004 70.9266C90.1526 70.8051 90.1873 70.7359 90.2217 70.6143C87.5545 70.9614 84.8698 71.2909 82.1676 71.6205Z" fill="#6F33EA"/>
<path d="M62.2314 75.992C62.1104 76.1136 62.041 76.1828 61.9024 76.3044C62.3181 76.2348 62.526 76.2176 62.9417 76.1481C63.0802 76.0268 63.1494 75.9573 63.2707 75.836C62.8551 75.888 62.6471 75.9225 62.2314 75.992Z" fill="#04D361"/>
<path d="M64.2928 75.628C64.1714 75.7495 64.1023 75.8188 63.9637 75.9403C65.713 75.68 66.6657 75.5585 68.6576 75.2985C68.7961 75.1769 68.8481 75.1077 68.9866 74.9861C67.0122 75.2464 66.0595 75.3852 64.2928 75.628Z" fill="#6F33EA"/>
<path d="M78.9976 73.7716C78.8765 73.8929 78.8246 73.9624 78.7032 74.084C79.1883 74.0317 79.4307 73.9972 79.9158 73.9452C80.0368 73.8237 80.0888 73.7541 80.2101 73.6329C79.725 73.6849 79.4826 73.7196 78.9976 73.7716Z" fill="#04D361"/>
<path d="M70.0262 74.8471C69.9048 74.9686 69.8357 75.0379 69.7144 75.1594C72.2952 74.8298 74.8932 74.5 77.4738 74.188C77.5951 74.0664 77.6471 73.9969 77.7684 73.8757C75.1876 74.2052 72.6067 74.5175 70.0262 74.8471Z" fill="#6F33EA"/>
<path d="M80.8687 73.5113C80.7649 73.6329 80.7127 73.7021 80.5916 73.8236C83.3801 73.4941 86.1687 73.147 88.9575 72.7999C89.0613 72.6787 89.096 72.6091 89.1999 72.4876C86.4286 72.8347 83.64 73.1642 80.8687 73.5113Z" fill="#6F33EA"/>
<path d="M59.0448 77.2065C58.9062 77.3281 58.8368 77.3801 58.6982 77.5016C59.0448 77.4493 59.2177 77.4148 59.5643 77.3453C59.7028 77.2241 59.7722 77.1718 59.9108 77.0505C59.5643 77.1198 59.391 77.1545 59.0448 77.2065Z" fill="#04D361"/>
<path d="M60.5863 76.9637C60.4477 77.085 60.3786 77.1373 60.2225 77.2585C61.7641 77.0157 62.6301 76.877 64.4663 76.6342C64.622 76.5127 64.6915 76.4606 64.83 76.3391C62.9938 76.5819 62.1278 76.7034 60.5863 76.9637Z" fill="#6F33EA"/>
<path d="M74.2521 75.1942C74.1136 75.3157 74.0441 75.385 73.8884 75.5065C74.3559 75.4545 74.5986 75.4197 75.0834 75.3677C75.2395 75.2462 75.3086 75.1769 75.4471 75.0554C74.9624 75.1074 74.7197 75.1246 74.2521 75.1942Z" fill="#04D361"/>
<path d="M65.7996 76.2003C65.6611 76.3219 65.5745 76.3739 65.4359 76.4954C67.9126 76.1659 70.3721 75.8535 72.8491 75.5412C72.9877 75.4197 73.0743 75.3677 73.2129 75.2462C70.7359 75.5412 68.2592 75.8535 65.7996 76.2003Z" fill="#6F33EA"/>
<path d="M63.271 73.0778C63.2016 73.2166 63.1669 73.2861 63.0977 73.4249C64.7259 73.1821 65.5919 73.0605 67.4106 72.8178C67.4797 72.679 67.5144 72.6094 67.5836 72.4707C65.7824 72.731 64.8989 72.8522 63.271 73.0778Z" fill="#04D361"/>
<path d="M76.5731 71.3429C76.5212 71.4817 76.4865 71.5337 76.4171 71.6728C76.8502 71.6205 77.0582 71.586 77.5083 71.5337C77.5777 71.3949 77.5949 71.3429 77.6471 71.2042C77.2139 71.2562 76.9888 71.2737 76.5731 71.3429Z" fill="#04D361"/>
<path d="M68.5537 72.3489C68.4843 72.4876 68.4498 72.5572 68.3804 72.6959C70.7533 72.3836 73.1437 72.0713 75.5165 71.7765C75.586 71.6377 75.6032 71.5855 75.6726 71.4467C73.2994 71.7418 70.9266 72.0366 68.5537 72.3489Z" fill="#6F33EA"/>
<path d="M78.5478 71.0826C78.4959 71.2214 78.4612 71.2734 78.4092 71.4122C81.0248 71.0826 83.64 70.7703 86.2728 70.4408C86.3075 70.3192 86.3247 70.25 86.3594 70.1112C83.7614 70.4408 81.1633 70.7703 78.5478 71.0826Z" fill="#6F33EA"/>
<path d="M87.3121 70.0072C87.2774 70.1284 87.2602 70.198 87.2255 70.3367C93.0105 69.6081 98.7783 68.8795 104.546 68.0468C104.546 67.9253 104.563 67.8558 104.563 67.7345C98.813 68.5499 93.0627 69.2958 87.3121 70.0072Z" fill="#6F33EA"/>
<path d="M68.4849 70.1112C68.4674 70.2672 68.4502 70.3367 68.4155 70.4755C70.2341 70.25 71.1868 70.1284 73.1268 69.9029C73.144 69.7641 73.1612 69.6946 73.1787 69.5386C71.2562 69.7641 70.3035 69.8857 68.4849 70.1112Z" fill="#04D361"/>
<path d="M82.3756 68.4456C82.3756 68.5844 82.3756 68.6539 82.3756 68.7927C82.8088 68.7407 83.0164 68.7234 83.4496 68.6712C83.4496 68.5324 83.4496 68.4631 83.4324 68.3244C83.0164 68.3764 82.8088 68.3936 82.3756 68.4456Z" fill="#04D361"/>
<path d="M74.2005 69.417C74.183 69.5558 74.183 69.6253 74.1486 69.7814C76.5906 69.4866 79.0329 69.1915 81.4752 68.8967C81.4752 68.7579 81.4752 68.6884 81.4752 68.5496C79.0501 68.8447 76.6253 69.1222 74.2005 69.417Z" fill="#6F33EA"/>
<path d="M84.3503 68.2028C84.3675 68.3416 84.3675 68.4108 84.3675 68.5496C86.9136 68.2376 89.4772 67.9253 92.0231 67.613C92.0059 67.4742 91.9887 67.4222 91.954 67.2834C89.425 67.5954 86.8789 67.9078 84.3503 68.2028Z" fill="#6F33EA"/>
<path d="M61.0714 75.3157C60.9675 75.4372 60.9156 75.5065 60.8115 75.628C62.3186 75.3852 63.1324 75.2637 64.8992 75.0034C65.0205 74.8819 65.0724 74.8126 65.1763 74.6911C63.4095 74.9341 62.5782 75.0729 61.0714 75.3157Z" fill="#6F33EA"/>
<path d="M74.2002 73.5116C74.0964 73.6504 74.0444 73.7024 73.9231 73.8412C74.3735 73.7892 74.5986 73.7544 75.0662 73.7024C75.1703 73.5811 75.2223 73.5116 75.3261 73.3728C74.8757 73.4248 74.6506 73.4596 74.2002 73.5116Z" fill="#04D361"/>
<path d="M85.095 72.1408C85.0084 72.2623 84.9737 72.3319 84.887 72.4531C85.3549 72.4011 85.5973 72.3664 86.0649 72.3144C86.1515 72.1931 86.1862 72.1236 86.2728 72.002C85.8052 72.0543 85.5626 72.0888 85.095 72.1408Z" fill="#04D361"/>
<path d="M66.0945 74.5523C65.9907 74.6736 65.9385 74.7431 65.8174 74.8646C68.1728 74.5348 70.546 74.2225 72.9188 73.9277C73.0227 73.8061 73.0746 73.7369 73.1787 73.6154C70.8231 73.9277 68.4674 74.2225 66.0945 74.5523Z" fill="#6F33EA"/>
<path d="M76.1055 73.2513C76.0013 73.3726 75.9494 73.4421 75.8456 73.5633C78.5303 73.2338 81.2149 72.9042 83.8996 72.5747C83.9863 72.4531 84.0382 72.3839 84.1076 72.2624C81.4573 72.5919 78.7727 72.9215 76.1055 73.2513Z" fill="#6F33EA"/>
<path d="M87.2599 71.8805C87.1905 72.0018 87.1385 72.0713 87.0694 72.1926C89.806 71.8458 92.5598 71.5162 95.2967 71.1519C95.3658 71.0304 95.4006 70.9608 95.4525 70.8396C92.7159 71.2039 89.9793 71.5334 87.2599 71.8805Z" fill="#6F33EA"/>
<path d="M80.6955 64.1258C80.7993 64.2821 80.834 64.3513 80.9207 64.5076C83.2936 64.2821 85.6664 64.039 88.0393 63.779C87.918 63.6402 87.866 63.5707 87.745 63.4319C85.4065 63.6747 83.0509 63.9002 80.6955 64.1258Z" fill="#6F33EA"/>
<path d="M88.7495 63.3276C88.8706 63.4664 88.94 63.5359 89.0438 63.6747C90.4468 63.5359 91.1568 63.4492 92.5598 63.2932C92.4388 63.1544 92.3693 63.0848 92.2308 62.9633C90.8453 63.1196 90.1522 63.1889 88.7495 63.3276Z" fill="#04D361"/>
<path d="M93.2529 62.8596C93.3914 62.9983 93.4608 63.0676 93.5994 63.1891C93.9284 63.1544 94.1017 63.1371 94.4479 63.1024C94.3094 62.9636 94.2402 62.9116 94.1017 62.7728C93.7552 62.8076 93.5819 62.8248 93.2529 62.8596Z" fill="#04D361"/>
<path d="M79.0676 64.2821C79.1542 64.4381 79.2061 64.5077 79.2927 64.6637C79.6912 64.6292 79.8817 64.6117 80.2801 64.5597C80.1935 64.4036 80.1416 64.3341 80.0549 64.1781C79.6565 64.2301 79.466 64.2473 79.0676 64.2821Z" fill="#AD92FF"/>
<path d="M62.7515 68.3416C62.7687 68.5152 62.7859 68.5844 62.8034 68.7579C64.4835 68.5672 65.3495 68.4632 67.1163 68.2721C67.0988 68.1161 67.0988 68.0293 67.0641 67.8733C65.3148 68.0641 64.4316 68.1508 62.7515 68.3416Z" fill="#04D361"/>
<path d="M68.017 67.769C68.0342 67.925 68.0515 68.0118 68.069 68.1678C70.3205 67.925 72.5548 67.6647 74.8066 67.4219C74.7894 67.2659 74.7719 67.1964 74.7372 67.0403C72.4857 67.2831 70.2514 67.5259 68.017 67.769Z" fill="#6F33EA"/>
<path d="M77.041 66.7976C77.0754 66.9536 77.0929 67.0231 77.1273 67.1791C79.5696 66.9016 82.0291 66.6415 84.4714 66.3637C84.4195 66.2249 84.3847 66.1557 84.3328 66.0169C81.908 66.2597 79.483 66.52 77.041 66.7976Z" fill="#6F33EA"/>
<path d="M85.3718 65.8782C85.4412 66.0169 85.4585 66.0862 85.5104 66.225C90.8106 65.6179 96.1108 64.9932 101.394 64.3166C101.289 64.1953 101.255 64.1258 101.151 64.0045C95.9029 64.6637 90.6373 65.2883 85.3718 65.8782Z" fill="#6F33EA"/>
<path d="M75.3955 66.9711C75.4302 67.1271 75.4474 67.1967 75.4646 67.3527C75.8631 67.3007 76.071 67.2834 76.4692 67.2487C76.4348 67.0924 76.4173 67.0231 76.3826 66.8671C75.9844 66.9016 75.7765 66.9363 75.3955 66.9711Z" fill="#AD92FF"/>
<path d="M62.9939 72.0365C62.9592 72.1753 62.9245 72.2621 62.8901 72.4009C64.5008 72.1753 65.3668 72.0541 67.1507 71.811C67.2027 71.6722 67.2202 71.603 67.2721 71.4642C65.4709 71.707 64.6046 71.811 62.9939 72.0365Z" fill="#04D361"/>
<path d="M68.2075 71.3427C68.1556 71.4814 68.1383 71.551 68.0864 71.6898C70.4074 71.3774 72.7455 71.0999 75.0837 70.8048C75.1359 70.666 75.1531 70.5968 75.1878 70.458C72.8494 70.7528 70.5284 71.0479 68.2075 71.3427Z" fill="#6F33EA"/>
<path d="M77.6298 70.1629C77.5951 70.302 77.5779 70.3712 77.5432 70.51C80.1588 70.1977 82.774 69.8681 85.3896 69.5558C85.4068 69.417 85.424 69.365 85.424 69.2263C82.826 69.5386 80.2279 69.8509 77.6298 70.1629Z" fill="#6F33EA"/>
<path d="M86.5324 69.0878C86.5149 69.2265 86.5152 69.2786 86.4977 69.4173C92.0922 68.7235 97.6696 68.0121 103.264 67.2314C103.247 67.1099 103.229 67.0406 103.212 66.9191C97.6696 67.6825 92.1094 68.3936 86.5324 69.0878Z" fill="#6F33EA"/>
<path d="M75.8803 70.389C75.8456 70.5278 75.8284 70.5971 75.7765 70.7358C76.1921 70.6838 76.4173 70.6666 76.833 70.5971C76.8677 70.4583 76.8849 70.389 76.9196 70.2503C76.504 70.3023 76.296 70.3368 75.8803 70.389Z" fill="#04D361"/>
<path d="M66.6484 64.0218C66.7351 64.195 66.7695 64.2993 66.8561 64.4726C69.0732 64.2993 71.2903 64.1083 73.5074 63.935C73.4208 63.7615 73.3689 63.6919 73.2648 63.5184C71.0652 63.6919 68.8655 63.8655 66.6484 64.0218Z" fill="#6F33EA"/>
<path d="M75.4647 63.3279C75.5685 63.4839 75.6204 63.5707 75.7246 63.7442C78.0108 63.5534 80.297 63.3451 82.5833 63.1371C82.4622 62.9808 82.3928 62.9116 82.2717 62.7553C80.0027 62.9636 77.7337 63.1544 75.4647 63.3279Z" fill="#6F33EA"/>
<path d="M83.0686 62.6861C83.2072 62.8421 83.2591 62.9116 83.3976 63.0676C87.8143 62.6513 92.2483 62.2174 96.665 61.7664C96.492 61.6451 96.4054 61.5756 96.2321 61.4368C91.8326 61.8879 87.4506 62.287 83.0686 62.6861Z" fill="#6F33EA"/>
<path d="M74.062 63.4492C74.1658 63.6227 74.2177 63.6919 74.3043 63.8655C74.6162 63.8307 74.7722 63.8307 75.0837 63.7962C74.9799 63.6399 74.9452 63.5532 74.8413 63.3796C74.5295 63.4144 74.3738 63.4144 74.062 63.4492Z" fill="#AD92FF"/>
<path d="M57.7975 78.1607C57.6418 78.2823 57.5724 78.3343 57.3991 78.4383C58.8368 78.1783 59.6681 78.0392 61.5215 77.7792C61.6948 77.6576 61.7814 77.6056 61.9372 77.4841C60.1013 77.7616 59.2525 77.9004 57.7975 78.1607Z" fill="#04D361"/>
<path d="M58.5422 78.6638C58.369 78.7678 58.2826 78.8374 58.0919 78.9414C58.5597 78.8721 58.8021 78.8201 59.3216 78.7506C59.5124 78.6466 59.599 78.5771 59.772 78.4731C59.2697 78.5598 59.0273 78.5946 58.5422 78.6638Z" fill="#04D361"/>
<path d="M60.4997 78.369C60.3264 78.4903 60.2226 78.5423 60.0493 78.6466C61.7469 78.4035 62.6821 78.2823 64.674 78.022C64.8645 77.9004 64.9511 77.8484 65.1416 77.7444C63.1324 78.0047 62.1973 78.126 60.4997 78.369Z" fill="#6F33EA"/>
<path d="M66.1634 77.6056C65.9729 77.7271 65.8863 77.7792 65.6958 77.8832C68.3286 77.5536 70.9785 77.2413 73.6113 76.9465C73.7846 76.825 73.8884 76.773 74.0617 76.6514C71.4289 76.9637 68.7961 77.2933 66.1634 77.6056Z" fill="#6F33EA"/>
<path d="M55.3555 79.8088C55.1647 79.9131 55.0784 79.9651 54.8876 80.0691C55.2861 79.9998 55.494 79.9651 55.9269 79.8955C56.1174 79.7915 56.2215 79.7395 56.412 79.618C55.9616 79.6875 55.7537 79.7395 55.3555 79.8088Z" fill="#04D361"/>
<path d="M57.0356 79.514C56.8451 79.618 56.7413 79.67 56.5508 79.7915C58.0229 79.5488 58.8717 79.4272 60.7076 79.1844C60.9156 79.0801 61.0194 79.0109 61.2099 78.9069C59.374 79.1669 58.5252 79.2884 57.0356 79.514Z" fill="#6F33EA"/>
<path d="M71.2904 77.6924C71.0999 77.8136 70.9961 77.8656 70.7881 77.9699C72.7453 77.7444 74.7197 77.5361 76.6772 77.3281C76.8677 77.2065 76.9716 77.1545 77.162 77.033C75.2048 77.2585 73.2476 77.4668 71.2904 77.6924Z" fill="#04D361"/>
<path d="M62.1798 78.7856C61.9718 78.8896 61.8852 78.9589 61.6775 79.0632C64.1889 78.7336 66.7175 78.4386 69.2465 78.161C69.4541 78.0395 69.5583 77.9875 69.7487 77.8835C67.2026 78.161 64.6912 78.4558 62.1798 78.7856Z" fill="#6F33EA"/>
<path d="M53.8831 81.1101C53.6579 81.2143 53.5368 81.2663 53.3116 81.3704C53.6579 81.3183 53.8311 81.2836 54.1949 81.2316C54.4373 81.1276 54.5414 81.0756 54.7666 80.9713C54.4028 81.0233 54.2296 81.058 53.8831 81.1101Z" fill="#04D361"/>
<path d="M55.4421 80.867C55.2169 80.9713 55.0959 81.0233 54.8532 81.1273C56.4467 80.9018 57.3474 80.7802 59.3047 80.5547C59.5473 80.4507 59.6684 80.3987 59.8936 80.2946C57.9363 80.5374 57.0356 80.6414 55.4421 80.867Z" fill="#6F33EA"/>
<path d="M69.9048 79.1847C69.6796 79.2887 69.5586 79.358 69.3159 79.4622C69.801 79.4102 70.0609 79.3927 70.5457 79.3407C70.7883 79.2367 70.8922 79.1672 71.1346 79.0632C70.6323 79.1152 70.3899 79.1499 69.9048 79.1847Z" fill="#04D361"/>
<path d="M60.9325 80.1731C60.6899 80.2771 60.5688 80.3291 60.3436 80.4334C62.9936 80.1383 65.6436 79.8435 68.311 79.566C68.5534 79.4617 68.6748 79.3925 68.9 79.2885C66.2325 79.5832 63.5825 79.8608 60.9325 80.1731Z" fill="#6F33EA"/>
<path d="M72.1736 78.9589C71.9484 79.0801 71.8274 79.1321 71.6022 79.2364C74.5812 78.9414 77.5605 78.629 80.5395 78.3343C80.7646 78.2127 80.8685 78.1607 81.0937 78.0392C78.1147 78.3515 75.1354 78.6466 72.1736 78.9589Z" fill="#6F33EA"/>
<path d="M46.1411 84.2156C45.8468 84.3197 45.7082 84.3544 45.3964 84.4584C45.7082 84.4237 45.8815 84.3889 46.2277 84.3544C46.5223 84.2501 46.6781 84.2156 46.9724 84.1114C46.6434 84.1461 46.4701 84.1634 46.1411 84.2156Z" fill="#04D361"/>
<path d="M47.6477 84.0246C47.3534 84.1289 47.1973 84.1809 46.903 84.2677C48.4443 84.0941 49.345 83.9901 51.3197 83.7991C51.6315 83.695 51.7873 83.643 52.0816 83.539C50.09 83.7298 49.1893 83.8338 47.6477 84.0246Z" fill="#6F33EA"/>
<path d="M62.3358 82.6368C62.024 82.7409 61.8683 82.8104 61.5737 82.9144C62.0762 82.8796 62.3358 82.8449 62.8556 82.8104C63.1674 82.7061 63.3232 82.6368 63.6175 82.5328C63.098 82.5848 62.8556 82.6021 62.3358 82.6368Z" fill="#04D361"/>
<path d="M53.1212 83.452C52.8093 83.5563 52.6533 83.6083 52.3415 83.7123C55.0609 83.4695 57.7978 83.2264 60.5169 83.0184C60.8287 82.9141 60.9847 82.8621 61.2963 82.7409C58.5597 82.9489 55.8403 83.192 53.1212 83.452Z" fill="#6F33EA"/>
<path d="M64.6915 82.4461C64.3797 82.5501 64.2411 82.6196 63.9293 82.7236C66.995 82.4808 70.0781 82.2378 73.1437 81.995C73.4555 81.8735 73.5941 81.8215 73.8887 81.6999C70.8228 81.9602 67.7571 82.2033 64.6915 82.4461Z" fill="#6F33EA"/>
<path d="M41.5339 85.6554C41.2049 85.7594 41.0489 85.7942 40.7198 85.8982C41.0144 85.8635 41.1702 85.8462 41.5165 85.8114C41.8458 85.7074 42.0015 85.6727 42.3305 85.5687C41.9843 85.5859 41.8283 85.6031 41.5339 85.6554Z" fill="#04D361"/>
<path d="M42.9366 85.4819C42.6073 85.5859 42.4516 85.6207 42.105 85.7247C43.5775 85.5686 44.4607 85.4819 46.4007 85.3259C46.7469 85.2216 46.903 85.1696 47.2492 85.0656C45.3095 85.2391 44.426 85.3259 42.9366 85.4819Z" fill="#6F33EA"/>
<path d="M57.5032 84.3022C57.1569 84.4065 57.0009 84.4757 56.6547 84.5797C57.1569 84.5452 57.4166 84.5277 57.9363 84.4929C58.2826 84.3889 58.4558 84.3197 58.7851 84.2154C58.2829 84.2329 58.023 84.2502 57.5032 84.3022Z" fill="#04D361"/>
<path d="M48.2885 84.996C47.9595 85.1 47.7862 85.152 47.4397 85.256C50.1591 85.0305 52.8785 84.8397 55.5976 84.6489C55.9441 84.5449 56.1174 84.4929 56.4464 84.3714C53.727 84.5622 51.0079 84.7705 48.2885 84.996Z" fill="#6F33EA"/>
<path d="M59.8761 84.1286C59.5298 84.2329 59.3738 84.3022 59.0275 84.4062C62.1279 84.1982 65.211 83.9899 68.3113 83.7818C68.6576 83.6603 68.8136 83.6083 69.1598 83.4868C66.0595 83.6951 62.9592 83.9031 59.8761 84.1286Z" fill="#6F33EA"/>
<path d="M37.4287 86.5921C37.0997 86.6789 36.9437 86.7309 36.6146 86.8176C36.8051 86.7829 36.8917 86.7653 37.1169 86.7309C37.4459 86.6441 37.6192 86.5921 37.9482 86.5053C37.723 86.5401 37.6192 86.5573 37.4287 86.5921Z" fill="#04D361"/>
<path d="M38.3811 86.4533C38.0521 86.5401 37.8788 86.5921 37.5498 86.6961C38.5891 86.5573 39.2818 86.4881 40.8928 86.3493C41.2391 86.245 41.4123 86.193 41.7588 86.1062C40.1306 86.245 39.4379 86.3145 38.3811 86.4533Z" fill="#6F33EA"/>
<path d="M50.9732 85.3776C50.627 85.4819 50.4365 85.5339 50.0728 85.6379C50.5575 85.6031 50.8002 85.5859 51.285 85.5511C51.6487 85.4471 51.822 85.3951 52.1857 85.2736C51.7007 85.3431 51.4583 85.3604 50.9732 85.3776Z" fill="#04D361"/>
<path d="M42.6249 86.0197C42.2786 86.1237 42.1054 86.1758 41.7589 86.2625C44.2011 86.0545 46.6434 85.881 49.0854 85.7247C49.4492 85.6206 49.6224 85.5686 49.9862 85.4646C47.5267 85.6206 45.0844 85.7942 42.6249 86.0197Z" fill="#6F33EA"/>
<path d="M47.3189 83.5908C47.0418 83.6948 46.9033 83.7295 46.6262 83.8336C47.8037 83.6428 48.5487 83.556 50.2288 83.348C50.5231 83.2437 50.6617 83.1917 50.9388 83.1049C49.2589 83.3132 48.514 83.4 47.3189 83.5908Z" fill="#04D361"/>
<path d="M60.2051 82.1683C59.9105 82.2723 59.7719 82.3246 59.4776 82.4286C59.9452 82.3938 60.1876 82.359 60.6726 82.3246C60.967 82.2203 61.1055 82.1683 61.4001 82.047C60.915 82.099 60.6727 82.1162 60.2051 82.1683Z" fill="#04D361"/>
<path d="M51.8567 83.0012C51.5624 83.1052 51.4239 83.1572 51.1293 83.2615C53.5888 82.9839 56.0311 82.7584 58.4906 82.5328C58.7852 82.4285 58.9237 82.3765 59.218 82.2725C56.7585 82.4981 54.299 82.7236 51.8567 83.0012Z" fill="#6F33EA"/>
<path d="M62.4222 81.9602C62.1279 82.0642 61.9893 82.1162 61.6947 82.2378C64.6912 81.9775 67.6877 81.7172 70.6842 81.4744C70.9785 81.3528 71.117 81.3008 71.3941 81.1793C68.3977 81.4396 65.4187 81.6999 62.4222 81.9602Z" fill="#6F33EA"/>
<path d="M72.4851 81.0925C72.208 81.2141 72.0695 81.2661 71.7751 81.3876C78.0972 80.8497 84.4192 80.3466 90.7065 79.6528C90.9836 79.5312 91.1221 79.462 91.3992 79.3232C85.1119 80.0171 78.7899 80.5374 72.4851 81.0925Z" fill="#6F33EA"/>
<path d="M55.5113 81.4048C55.2689 81.5088 55.1303 81.5609 54.8876 81.6651C56.6372 81.4396 57.607 81.3356 59.7028 81.11C59.9627 81.0058 60.084 80.9537 60.3436 80.8497C58.2479 81.0753 57.2605 81.1793 55.5113 81.4048Z" fill="#04D361"/>
<path d="M70.8053 79.7568C70.5629 79.8611 70.4415 79.9303 70.1816 80.0343C70.6839 79.9823 70.9438 79.9651 71.4461 79.9131C71.706 79.7915 71.8273 79.7395 72.0697 79.6355C71.5674 79.6875 71.3075 79.7223 70.8053 79.7568Z" fill="#04D361"/>
<path d="M61.4176 80.711C61.158 80.815 61.0367 80.867 60.7768 80.9713C63.5656 80.6762 66.3369 80.3986 69.1254 80.1383C69.3853 80.0343 69.5064 79.9648 69.7491 79.8608C66.9777 80.1383 64.2064 80.4159 61.4176 80.711Z" fill="#6F33EA"/>
<path d="M73.1437 79.5312C72.9013 79.6528 72.78 79.7048 72.5201 79.8088C75.5341 79.514 78.5478 79.2364 81.5615 78.9414C81.8042 78.8201 81.9252 78.7681 82.1504 78.6466C79.1539 78.9589 76.1402 79.2364 73.1437 79.5312Z" fill="#6F33EA"/>
<path d="M42.2439 85.1698C41.9496 85.2566 41.7935 85.3086 41.4992 85.3954C42.4344 85.2394 43.058 85.1526 44.5648 84.9791C44.8766 84.875 45.0324 84.8403 45.3617 84.736C43.8374 84.9271 43.1793 85.0138 42.2439 85.1698Z" fill="#6F33EA"/>
<path d="M54.0913 83.9378C53.762 84.0419 53.6062 84.0939 53.2772 84.1979C53.7448 84.1634 53.97 84.1459 54.455 84.1114C54.7841 84.0071 54.9398 83.9551 55.2689 83.8511C54.7841 83.8858 54.5414 83.9031 54.0913 83.9378Z" fill="#04D361"/>
<path d="M66.2847 82.9839C65.9729 83.1055 65.7997 83.1575 65.4879 83.2787C66.0248 83.2442 66.2847 83.2267 66.8214 83.1747C67.1507 83.0532 67.3065 83.0012 67.6183 82.8799C67.0813 82.9319 66.8214 82.9492 66.2847 82.9839Z" fill="#04D361"/>
<path d="M46.1581 84.6665C45.8462 84.7705 45.6905 84.8225 45.3615 84.9092C47.6824 84.6665 50.0034 84.4757 52.3068 84.2849C52.6361 84.1806 52.7919 84.1286 53.1209 84.0246C50.8 84.2154 48.479 84.4237 46.1581 84.6665Z" fill="#6F33EA"/>
<path d="M56.2562 83.764C55.9272 83.8683 55.7714 83.9203 55.4421 84.0243C58.4214 83.7988 61.4004 83.5732 64.3797 83.3477C64.7087 83.2264 64.8648 83.1744 65.1938 83.0701C62.2145 83.2957 59.2355 83.5212 56.2562 83.764Z" fill="#6F33EA"/>
<path d="M68.727 82.8101C68.4152 82.9314 68.2419 82.9837 67.9301 83.1049C70.9613 82.8794 74.0097 82.6538 77.0407 82.4283C77.37 82.307 77.5257 82.2375 77.8376 82.1162C74.7891 82.3418 71.7579 82.5846 68.727 82.8101Z" fill="#6F33EA"/>
<path d="M76.8846 76.3394C76.7113 76.4609 76.6247 76.5129 76.4517 76.6342C79.4135 76.3046 82.3753 75.9751 85.3371 75.628C85.4929 75.5068 85.5795 75.4548 85.7355 75.3332C82.791 75.6628 79.8292 76.0099 76.8846 76.3394Z" fill="#6F33EA"/>
<path d="M86.9828 75.1942C86.827 75.3157 86.7404 75.3677 86.5846 75.4892C88.3166 75.2985 89.1826 75.1942 90.8972 74.9861C91.0532 74.8646 91.1224 74.8126 91.2784 74.6911C89.5808 74.8821 88.7148 74.9861 86.9828 75.1942Z" fill="#04D361"/>
<path d="M92.4735 74.535C92.3177 74.6566 92.2483 74.7258 92.0925 74.8474C92.4907 74.7954 92.6987 74.7778 93.0971 74.7258C93.2529 74.6043 93.3223 74.535 93.478 74.4135C93.0796 74.4655 92.8891 74.483 92.4735 74.535Z" fill="#04D361"/>
<path d="M74.8585 76.5647C74.6852 76.6859 74.5986 76.7379 74.4081 76.8595C74.8932 76.8075 75.1356 76.7727 75.6207 76.7207C75.7939 76.5992 75.8803 76.5472 76.0536 76.4259C75.586 76.4952 75.3436 76.5127 74.8585 76.5647Z" fill="#04D361"/>
<path d="M54.0913 80.5377C53.8833 80.6417 53.7795 80.6937 53.5715 80.7978C54.8188 80.5725 55.5635 80.4509 57.2264 80.2254C57.4516 80.1214 57.5554 80.0691 57.7631 79.9651C56.1177 80.1906 55.3555 80.2946 54.0913 80.5377Z" fill="#04D361"/>
<path d="M58.6638 79.8263C58.4561 79.9303 58.3348 79.9823 58.1268 80.0866C60.5 79.7743 62.8729 79.4792 65.2629 79.2192C65.4881 79.1149 65.5922 79.0457 65.8171 78.9417C63.4271 79.2192 61.0542 79.4968 58.6638 79.8263Z" fill="#6F33EA"/>
<path d="M68.4843 78.6463C68.2766 78.7506 68.1553 78.8198 67.9476 78.9239C70.8747 78.5943 73.8192 78.2995 76.7463 77.9872C76.9543 77.8656 77.0581 77.8136 77.2658 77.6921C74.3387 78.0044 71.4116 78.3167 68.4843 78.6463Z" fill="#6F33EA"/>
<path d="M78.5131 77.5536C78.3051 77.6749 78.2013 77.7269 77.9933 77.8484C84.1767 77.1893 90.3777 76.5474 96.5437 75.784C96.7341 75.6625 96.8383 75.5932 97.0113 75.4717C90.8625 76.2351 84.6965 76.8942 78.5131 77.5536Z" fill="#6F33EA"/>
<path d="M66.5618 78.8549C66.3541 78.9589 66.2328 79.0284 66.0076 79.1324C66.458 79.0804 66.7004 79.0632 67.1507 79.0112C67.3759 78.9069 67.48 78.8376 67.6877 78.7333C67.2374 78.7856 67.0122 78.8029 66.5618 78.8549Z" fill="#04D361"/>
<path d="M48.9124 82.8971C48.6525 83.0012 48.5312 83.0359 48.2713 83.1399C49.4144 82.9492 50.1247 82.8449 51.7701 82.6368C52.0472 82.5328 52.1685 82.4805 52.4456 82.3765C50.8002 82.6021 50.0727 82.7061 48.9124 82.8971Z" fill="#04D361"/>
<path d="M53.3117 82.2723C53.0518 82.3763 52.9132 82.4283 52.6361 82.5323C55.0265 82.2375 57.4341 81.9947 59.8241 81.7692C60.1012 81.6649 60.2398 81.6129 60.5169 81.5089C58.1093 81.7344 55.7017 81.9947 53.3117 82.2723Z" fill="#6F33EA"/>
<path d="M63.2363 81.2316C62.9592 81.3356 62.8207 81.3876 62.5436 81.5091C65.5573 81.2316 68.571 80.954 71.5847 80.6765C71.8621 80.5549 71.9831 80.5029 72.2602 80.3989C69.2637 80.659 66.25 80.9368 63.2363 81.2316Z" fill="#6F33EA"/>
<path d="M73.5769 80.2601C73.3173 80.3817 73.1787 80.4337 72.9188 80.5549C79.1714 79.9998 85.4243 79.4447 91.6769 78.7508C91.9368 78.6293 92.0581 78.5601 92.3177 78.4385C86.0651 79.1324 79.8123 79.6875 73.5769 80.2601Z" fill="#6F33EA"/>
<path d="M61.175 81.4224C60.8804 81.5436 60.7246 81.5956 60.43 81.7172C60.9323 81.6652 61.1922 81.6479 61.6945 81.5956C61.989 81.4744 62.1448 81.4224 62.4391 81.3008C61.9368 81.3528 61.6772 81.3701 61.175 81.4224Z" fill="#04D361"/>
<path d="M62.6993 77.3801C62.5435 77.5013 62.4569 77.5533 62.2836 77.6749C64.7084 77.3278 67.1335 77.0158 69.5755 76.7207C69.7488 76.5992 69.8182 76.5472 69.9915 76.4259C67.5492 76.7379 65.1244 77.033 62.6993 77.3801Z" fill="#6F33EA"/>
<path d="M72.6067 76.1139C72.4506 76.2351 72.3643 76.2871 72.2083 76.4086C75.0662 76.0616 77.9069 75.732 80.7646 75.4025C80.9206 75.2809 80.9897 75.2289 81.1458 75.1074C78.2704 75.4372 75.4299 75.7668 72.6067 76.1139Z" fill="#6F33EA"/>
<path d="M82.1332 74.9859C81.9947 75.1074 81.908 75.1594 81.7695 75.2806C87.208 74.6563 92.6295 74.0144 98.0508 73.3203C98.1719 73.199 98.2413 73.1295 98.3626 73.0082C92.9586 73.7021 87.5545 74.344 82.1332 74.9859Z" fill="#6F33EA"/>
<path d="M70.9094 76.3044C70.7534 76.4259 70.6667 76.4779 70.4935 76.5994C70.8747 76.5474 71.048 76.5299 71.4289 76.4779C71.6022 76.3564 71.6713 76.3044 71.8446 76.1831C71.4636 76.2524 71.2731 76.2696 70.9094 76.3044Z" fill="#04D361"/>
<path d="M35.0037 87.2687C34.6746 87.3555 34.5014 87.4075 34.1548 87.4942C34.8651 87.373 35.4368 87.3035 36.9089 87.1647C37.2727 87.0607 37.4459 87.0259 37.7922 86.9219C36.32 87.0779 35.7311 87.1474 35.0037 87.2687Z" fill="#04D361"/>
<path d="M33.5835 87.8066C33.2197 87.9106 33.0465 87.9453 32.6827 88.0493C32.9946 88.0146 33.1678 87.9973 33.5315 87.9626C33.8953 87.8586 34.0858 87.8238 34.4495 87.7198C34.0683 87.7546 33.8953 87.7718 33.5835 87.8066Z" fill="#04D361"/>
<path d="M34.9865 87.6678C34.6227 87.7721 34.4323 87.8066 34.0685 87.9108C35.3849 87.8066 36.199 87.7373 38.0524 87.6158C38.4333 87.5118 38.6238 87.4598 39.005 87.3555C37.1342 87.4942 36.3204 87.5638 34.9865 87.6678Z" fill="#6F33EA"/>
<path d="M39.9746 87.3035C39.5933 87.4075 39.4029 87.4595 39.0219 87.5635C41.6891 87.4075 44.3566 87.2512 47.0065 87.1124C47.405 87.0084 47.5955 86.9392 47.9767 86.8349C45.3264 86.9912 42.6417 87.1472 39.9746 87.3035Z" fill="#6F33EA"/>
<path d="M29.8596 88.6567C29.4959 88.7435 29.3227 88.7955 28.9589 88.8995C29.1321 88.8648 29.2361 88.8648 29.4785 88.83C29.8423 88.726 30.0328 88.6912 30.3966 88.5872C30.1368 88.6045 30.0329 88.622 29.8596 88.6567Z" fill="#04D361"/>
<path d="M30.7603 88.5352C30.3966 88.6392 30.206 88.674 29.825 88.778C30.743 88.6912 31.3839 88.6392 32.9254 88.5352C33.3238 88.4309 33.5143 88.3789 33.8953 88.2749C32.3537 88.3964 31.6957 88.4484 30.7603 88.5352Z" fill="#6F33EA"/>
<path d="M43.6122 87.7371C43.2137 87.8413 43.006 87.9106 42.6076 88.0146C44.6515 87.9106 46.7125 87.8238 48.7564 87.7371C49.1548 87.6158 49.3625 87.5638 49.7609 87.4423C47.7171 87.5463 45.656 87.633 43.6122 87.7371Z" fill="#04D361"/>
<path d="M34.7612 88.2229C34.3803 88.3269 34.1723 88.3789 33.7914 88.4829C36.199 88.3269 38.6065 88.2054 41.0141 88.1014C41.4123 87.9974 41.6203 87.9454 42.0187 87.8238C39.5936 87.9454 37.1688 88.0666 34.7612 88.2229Z" fill="#6F33EA"/>
<path d="M25.0443 90.0097C24.6459 90.1138 24.4554 90.166 24.057 90.2525C24.2475 90.2353 24.3515 90.2353 24.5766 90.218C24.975 90.1138 25.1828 90.0617 25.5812 89.975C25.356 89.975 25.2348 89.9925 25.0443 90.0097Z" fill="#04D361"/>
<path d="M26.0319 89.9232C25.6335 90.0272 25.4256 90.0792 25.0273 90.1833C26.1185 90.114 26.846 90.0793 28.5607 90.01C28.9764 89.9057 29.1843 89.8537 29.5999 89.7497C27.8852 89.8189 27.1404 89.8537 26.0319 89.9232Z" fill="#6F33EA"/>
<path d="M39.2474 89.3506C38.8142 89.4722 38.6065 89.5242 38.1734 89.6454C38.6757 89.6282 38.9181 89.6109 39.4379 89.5934C39.8707 89.4721 40.0959 89.4199 40.5118 89.2986C39.9921 89.3159 39.7497 89.3331 39.2474 89.3506Z" fill="#04D361"/>
<path d="M30.5179 89.6974C30.1022 89.8014 29.8944 89.8537 29.4614 89.9577C32.0249 89.8537 34.5711 89.7494 37.1344 89.6627C37.5673 89.5414 37.7753 89.4894 38.2084 89.3851C35.6448 89.4894 33.0814 89.5759 30.5179 89.6974Z" fill="#6F33EA"/>
<path d="M41.568 89.2636C41.1352 89.3851 40.9272 89.4371 40.4943 89.5586C43.5772 89.4546 46.6603 89.3503 49.7434 89.2463C50.1763 89.1248 50.4015 89.0556 50.8346 88.934C47.7343 89.038 44.6512 89.1596 41.568 89.2636Z" fill="#6F33EA"/>
<path d="M11.9846 93.3061C11.5516 93.4101 11.3264 93.4797 10.8761 93.5837C11.032 93.5837 11.1186 93.5837 11.3091 93.5837C11.7595 93.4797 11.9846 93.4101 12.435 93.3061C12.2444 93.3061 12.1405 93.3061 11.9846 93.3061Z" fill="#AD92FF"/>
<path d="M12.8336 93.2889C12.3833 93.3929 12.1581 93.4624 11.7078 93.5664C12.6777 93.5492 13.3532 93.5492 14.9987 93.5317C15.4663 93.4104 15.7088 93.3584 16.1765 93.2369C14.5137 93.2716 13.8209 93.2716 12.8336 93.2889Z" fill="#6F33EA"/>
<path d="M25.616 93.1151C25.131 93.2366 24.8885 93.3059 24.3862 93.4274C24.8712 93.4274 25.131 93.4274 25.6333 93.4101C26.1183 93.2886 26.3781 93.2194 26.8631 93.0978C26.3608 93.1151 26.1183 93.1151 25.616 93.1151Z" fill="#04D361"/>
<path d="M17.0597 93.2366C16.592 93.3581 16.3496 93.4102 15.8819 93.5317C18.3934 93.4969 20.8876 93.4794 23.399 93.4449C23.884 93.3234 24.1265 93.2541 24.6115 93.1326C22.0827 93.1674 19.5712 93.2018 17.0597 93.2366Z" fill="#6F33EA"/>
<path d="M27.9197 93.0978C27.4347 93.2194 27.1922 93.2886 26.6899 93.4101C29.7037 93.3754 32.7349 93.3581 35.7486 93.3234C36.2509 93.1846 36.4933 93.1326 36.9956 92.9938C33.9819 93.0286 30.9508 93.0631 27.9197 93.0978Z" fill="#6F33EA"/>
<path d="M14.9812 92.4559C14.5655 92.56 14.3404 92.612 13.9247 92.716C14.3404 92.6987 14.7734 92.6815 15.9858 92.664C16.4362 92.56 16.6613 92.4907 17.0943 92.3864C15.8646 92.4212 15.4142 92.4384 14.9812 92.4559Z" fill="#04D361"/>
<path d="M25.0963 92.2304C24.6287 92.3517 24.3862 92.4037 23.9185 92.5252C24.3689 92.5252 24.594 92.508 25.0616 92.508C25.5293 92.3864 25.7718 92.3344 26.2395 92.2129C25.7718 92.2129 25.5467 92.2129 25.0963 92.2304Z" fill="#04D361"/>
<path d="M17.7525 92.3692C17.3022 92.4732 17.077 92.5427 16.6267 92.6467C18.7398 92.5947 20.8703 92.56 22.9833 92.5252C23.451 92.4039 23.6935 92.3517 24.1611 92.2304C22.0307 92.2824 19.883 92.3172 17.7525 92.3692Z" fill="#6F33EA"/>
<path d="M27.2267 92.1784C26.759 92.2999 26.5166 92.3519 26.049 92.4735C29.0108 92.4212 31.9725 92.3867 34.917 92.3347C35.4021 92.2132 35.6445 92.1437 36.1121 92.0224C33.1503 92.0744 30.1885 92.1264 27.2267 92.1784Z" fill="#6F33EA"/>
<path d="M37.2208 92.0049C36.7357 92.1264 36.4933 92.1956 36.0082 92.3172C41.9493 92.2304 47.9076 92.1436 53.8487 92.0744C54.3682 91.9356 54.6105 91.8661 55.1303 91.7101C49.1546 91.8141 43.1791 91.9009 37.2208 92.0049Z" fill="#6F33EA"/>
<path d="M24.334 90.6171C23.9183 90.7211 23.7105 90.7731 23.2775 90.8771C24.6111 90.8251 25.4598 90.7906 27.3651 90.7211C27.7981 90.6171 28.0233 90.5476 28.4563 90.4436C26.5337 90.5303 25.685 90.5651 24.334 90.6171Z" fill="#04D361"/>
<path d="M38.7279 90.1315C38.2775 90.2528 38.0523 90.3048 37.6192 90.4263C38.1387 90.4091 38.3986 90.4091 38.9184 90.3916C39.3687 90.2703 39.5936 90.2183 40.044 90.0968C39.4898 90.0968 39.2302 90.114 38.7279 90.1315Z" fill="#04D361"/>
<path d="M29.4609 90.4263C29.0279 90.5303 28.8027 90.5996 28.3697 90.7039C31.089 90.6171 33.8083 90.5303 36.5449 90.4608C36.9953 90.3396 37.2205 90.2876 37.6536 90.166C34.917 90.2353 32.1976 90.322 29.4609 90.4263Z" fill="#6F33EA"/>
<path d="M41.1177 90.062C40.6674 90.1835 40.4422 90.2355 39.9918 90.3568C43.0749 90.2703 46.1578 90.1835 49.2237 90.114C49.6741 89.9925 49.8992 89.9232 50.3496 89.8017C47.2837 89.8712 44.2009 89.958 41.1177 90.062Z" fill="#6F33EA"/>
<path d="M50.9732 86.6788C50.5923 86.8004 50.4015 86.8524 50.0034 86.9564C53.1728 86.8004 56.3426 86.6268 59.5296 86.4708C59.928 86.3493 60.1185 86.2973 60.4994 86.1758C57.3124 86.3493 54.143 86.5053 50.9732 86.6788Z" fill="#6F33EA"/>
<path d="M61.816 86.1065C61.4348 86.2278 61.2443 86.2973 60.8459 86.4185C62.6993 86.332 63.6172 86.2798 65.3839 86.1933C65.7824 86.0717 65.9729 86.0022 66.3541 85.881C64.5873 85.9677 63.6694 86.0022 61.816 86.1065Z" fill="#04D361"/>
<path d="M67.6011 85.7942C67.2198 85.9154 67.0121 85.985 66.6309 86.1065C67.0466 86.089 67.2545 86.0717 67.653 86.0542C68.0514 85.933 68.2419 85.8634 68.6228 85.7422C68.2244 85.7594 68.0167 85.7767 67.6011 85.7942Z" fill="#04D361"/>
<path d="M48.8255 86.7828C48.4443 86.8871 48.2538 86.9564 47.8553 87.0604C48.3576 87.0259 48.6175 87.0259 49.137 86.9912C49.5355 86.8871 49.7259 86.8176 50.1072 86.7136C49.5874 86.7484 49.3278 86.7656 48.8255 86.7828Z" fill="#04D361"/>
<path d="M27.3482 89.3158C26.9845 89.4026 26.7939 89.4546 26.4128 89.5586C26.9151 89.4894 27.3828 89.4371 28.6299 89.3506C29.0282 89.2463 29.2188 89.1943 29.6172 89.1075C28.3528 89.1943 27.8851 89.2291 27.3482 89.3158Z" fill="#04D361"/>
<path d="M30.2925 89.0555C29.8941 89.1598 29.7036 89.2118 29.3052 89.3159C31.4356 89.1771 33.5659 89.0903 35.6964 88.9863C36.1121 88.882 36.32 88.83 36.7185 88.7087C34.5705 88.8128 32.4403 88.9168 30.2925 89.0555Z" fill="#6F33EA"/>
<path d="M39.3684 88.5872C38.9525 88.6915 38.7448 88.7608 38.3292 88.8651C41.3601 88.7435 44.3741 88.622 47.405 88.5007C47.8207 88.3792 48.0286 88.3272 48.4443 88.2057C45.4131 88.3097 42.3994 88.4484 39.3684 88.5872Z" fill="#6F33EA"/>
<path d="M49.7782 88.1361C49.3625 88.2577 49.1545 88.3097 48.7389 88.4312C54.9915 88.1881 61.2269 87.9626 67.4798 87.6678C67.9126 87.529 68.1378 87.4595 68.5537 87.3207C62.3009 87.633 56.0308 87.8761 49.7782 88.1361Z" fill="#6F33EA"/>
<path d="M37.446 88.674C37.0303 88.7783 36.8223 88.8303 36.4239 88.9515C36.8743 88.9343 37.0994 88.9171 37.5498 88.8995C37.9655 88.7955 38.1734 88.726 38.5891 88.622C38.1215 88.6392 37.8963 88.6392 37.446 88.674Z" fill="#04D361"/>
<path d="M18.1163 91.6405C17.7007 91.7446 17.5101 91.7966 17.0944 91.9009C17.4408 91.8661 17.8392 91.8489 18.9824 91.8141C19.4154 91.7101 19.6232 91.6578 20.0562 91.5538C18.9131 91.5885 18.4974 91.6058 18.1163 91.6405Z" fill="#04D361"/>
<path d="M20.7144 91.5196C20.2814 91.6236 20.0562 91.6756 19.6232 91.7796C21.6844 91.7104 23.7455 91.6584 25.8067 91.6063C26.257 91.4848 26.4822 91.4328 26.9325 91.3288C24.854 91.398 22.7756 91.4501 20.7144 91.5196Z" fill="#6F33EA"/>
<path d="M29.5481 91.2765C29.0978 91.3978 28.8726 91.4498 28.405 91.5713C31.4014 91.502 34.3978 91.4325 37.4118 91.3805C37.8794 91.259 38.1046 91.1897 38.5721 91.0682C35.5584 91.1202 32.5619 91.1897 29.5481 91.2765Z" fill="#6F33EA"/>
<path d="M39.8882 91.0334C39.4204 91.155 39.1955 91.2242 38.7276 91.3457C44.7725 91.2242 50.8174 91.103 56.8448 90.9814C57.3299 90.8426 57.5723 90.7731 58.0574 90.6343C52.0125 90.7559 45.9503 90.8946 39.8882 91.0334Z" fill="#6F33EA"/>
<path d="M27.66 91.311C27.2097 91.4323 26.9846 91.4845 26.5169 91.6058C26.9499 91.5885 27.1751 91.5885 27.6428 91.5713C28.0931 91.4498 28.3355 91.3978 28.7859 91.2762C28.3182 91.2935 28.0931 91.311 27.66 91.311Z" fill="#04D361"/>
<path d="M38.4333 86.8699C38.0696 86.9739 37.8966 87.0087 37.5328 87.1127C39.8016 86.9219 42.0706 86.7656 44.3396 86.6096C44.7209 86.5056 44.8938 86.4536 45.2576 86.3493C42.9888 86.5228 40.7023 86.6788 38.4333 86.8699Z" fill="#6F33EA"/>
<path d="M47.9598 86.193C47.5961 86.297 47.4053 86.349 47.0244 86.4706C50.0728 86.2798 53.104 86.1062 56.1524 85.9327C56.5333 85.8112 56.7066 85.7592 57.0876 85.6379C54.0391 85.8112 51.0082 86.0022 47.9598 86.193Z" fill="#6F33EA"/>
<path d="M58.1959 85.5686C57.8322 85.6902 57.6417 85.7422 57.2605 85.8637C62.9936 85.5339 68.7267 85.2218 74.4426 84.8575C74.8235 84.7187 75.0143 84.6665 75.378 84.5277C69.6621 84.9095 63.929 85.2391 58.1959 85.5686Z" fill="#6F33EA"/>
<path d="M46.21 86.297C45.8462 86.4013 45.6558 86.4533 45.2745 86.5573C45.6558 86.5401 45.8462 86.5226 46.2447 86.5053C46.6256 86.4013 46.7989 86.3493 47.1798 86.245C46.7814 86.2625 46.5909 86.2798 46.21 86.297Z" fill="#04D361"/>
<path d="M112.912 57.256C112.306 56.9957 111.647 56.8917 110.989 56.9437L57.9364 60.5349C57.1917 60.5869 56.8107 61.4891 57.313 62.0442C57.7112 62.4953 58.1443 63.0676 58.5428 63.7615C58.5947 63.727 58.6291 63.7095 58.6813 63.675C58.9584 63.2064 59.426 62.9116 59.963 62.8596L113.639 57.5856C113.38 57.464 113.137 57.36 112.912 57.256Z" fill="#D7D7E1"/>
<path d="M72.1911 4.74188C69.593 3.87447 62.1451 -2.71797 61.9721 1.27219C61.7989 5.26236 68.2075 11.3343 68.2075 11.3343C62.1451 7.86463 60.4997 2.01818 60.4997 2.01818C59.0795 1.93144 57.9883 2.41719 57.815 4.04795C57.2955 9.25252 64.9164 14.804 64.9164 14.804C58.1615 11.6813 56.7758 5.78281 56.7758 5.78281C55.7365 6.12977 54.0044 8.38508 56.7758 12.3752C59.5471 16.3654 65.0897 18.4472 65.0897 18.4472C67.6877 13.4162 72.7109 10.6404 74.7891 12.2018C76.8677 13.7631 75.1357 17.0593 75.1357 17.0593C77.7337 16.8858 78.0802 19.4881 78.0802 19.4881C75.8284 17.5798 72.7109 18.2737 72.7109 18.2737C74.9624 17.0593 75.4822 11.6813 72.1911 12.8957C68.9003 14.1101 63.7042 20.0086 67.1682 22.7843C70.6323 25.5601 80.0719 22.3506 80.0719 22.3506C83.9 22.3506 87.0522 22.7496 89.5289 23.4262C90.2911 18.6727 93.201 13.208 95.5913 9.32191C85.9091 5.4532 74.0617 5.36643 72.1911 4.74188Z" fill="url(#paint1_linear_101_8)"/>
<path d="M67.1682 57.308C67.1682 57.308 68.554 59.5632 73.2306 59.3896C73.2306 59.3896 70.6323 67.717 73.7501 69.105C76.7813 70.458 78.0111 60.7949 78.0802 60.2746C78.0802 60.2571 78.0802 60.2571 78.0802 60.2571V60.2746C78.0283 60.7429 77.1104 68.6019 79.2928 69.105C81.5443 69.6254 82.4103 60.2571 82.4103 60.2571C82.4103 60.2571 82.2373 69.4518 85.5281 67.5435C88.819 65.6351 86.5674 55.2261 80.1588 48.6336C75.4475 43.7762 69.0391 40.8096 60.8637 41.7983C58.5775 49.6398 59.7031 55.1741 61.0022 58.3835C63.1672 57.6548 65.2285 57.2212 67.1682 57.308Z" fill="url(#paint2_linear_101_8)"/>
<path d="M60.7574 62.0823C60.9437 61.7588 60.7257 61.2827 60.2701 61.0193C59.8144 60.756 59.2938 60.8046 59.1072 61.1281C58.9207 61.4518 59.1389 61.9276 59.5945 62.1913C60.0502 62.4546 60.5708 62.406 60.7574 62.0823Z" fill="#AAAABC"/>
<path d="M63.1821 61.9087C63.3687 61.5853 63.1505 61.1092 62.6949 60.8458C62.2392 60.5822 61.7186 60.6311 61.5323 60.9545C61.3457 61.2783 61.5639 61.7541 62.0193 62.0177C62.4749 62.2811 62.9956 62.2324 63.1821 61.9087Z" fill="#AAAABC"/>
<path d="M65.6069 61.7349C65.7935 61.4115 65.5756 60.9354 65.1199 60.672C64.6643 60.4084 64.1437 60.4573 63.9571 60.7807C63.7705 61.1045 63.9887 61.5803 64.4444 61.8439C64.9 62.1073 65.4206 62.0586 65.6069 61.7349Z" fill="#04D361"/>
<path d="M47.4397 29.1339L49.6396 32.4648C49.9167 32.8811 49.6221 33.4537 49.1026 33.4537C48.7908 33.4537 48.6003 33.8005 48.7733 34.0608L51.3888 38.1203C51.458 38.2419 51.5793 38.2939 51.7179 38.2939H52.2896C52.5495 38.2939 52.7919 38.4499 52.8785 38.693C53.1903 39.4736 53.8656 41.2777 54.3506 42.9085L53.9003 43.0648C53.9003 43.0648 53.1556 40.5318 52.4973 38.9357C52.4281 38.7622 52.2549 38.6754 52.0816 38.693L51.5793 38.7622C51.3369 38.797 51.0942 38.693 50.9557 38.4674L48.098 33.9568C47.8381 33.5577 48.098 33.0371 48.5656 32.9851L48.7042 32.9679C48.9813 32.9331 49.137 32.6555 49.016 32.3952L47.4397 29.1339Z" fill="#D7D7E1"/>
<path d="M49.8304 34.5297L51.5971 37.236C51.7184 37.4095 51.9089 37.4787 52.0647 37.4095H52.0819C52.3418 37.3052 52.4284 36.9236 52.2551 36.6461L50.4712 33.9398C50.3846 33.8183 50.2632 33.7488 50.1422 33.7315C49.7957 33.7315 49.6052 34.1999 49.8304 34.5297Z" fill="#8157E4"/>
<path d="M160.888 49.0922H156.222V59.5148H150.365V31.0436H160.927C164.285 31.0436 166.875 31.7931 168.697 33.2924C170.52 34.7917 171.431 36.91 171.431 39.6474C171.431 41.59 171.007 43.213 170.162 44.5165C169.329 45.8072 168.059 46.837 166.355 47.6063L172.504 59.2411V59.5148H166.218L160.888 49.0922ZM156.222 44.3407H160.947C162.417 44.3407 163.556 43.9692 164.363 43.2261C165.17 42.4699 165.574 41.4334 165.574 40.1168C165.574 38.7742 165.19 37.7182 164.422 36.9489C163.667 36.18 162.502 35.7954 160.927 35.7954H156.222V44.3407ZM174.652 48.7404C174.652 46.6415 175.055 44.7707 175.862 43.1282C176.669 41.4857 177.827 40.2147 179.337 39.3151C180.86 38.4157 182.623 37.966 184.628 37.966C187.478 37.966 189.802 38.8392 191.598 40.5863C193.407 42.3331 194.415 44.7056 194.624 47.7039L194.663 49.1509C194.663 52.3969 193.758 55.0042 191.949 56.9726C190.14 58.9282 187.712 59.9058 184.667 59.9058C181.621 59.9058 179.187 58.9282 177.365 56.9726C175.556 55.0172 174.652 52.358 174.652 48.9946V48.7404ZM180.294 49.1509C180.294 51.1585 180.671 52.6967 181.426 53.7658C182.181 54.8217 183.261 55.3496 184.667 55.3496C186.034 55.3496 187.101 54.8281 187.869 53.7852C188.637 52.7295 189.02 51.0478 189.02 48.7404C189.02 46.7719 188.637 45.2465 187.869 44.1647C187.101 43.0826 186.021 42.5417 184.628 42.5417C183.248 42.5417 182.181 43.0826 181.426 44.1647C180.671 45.2334 180.294 46.8957 180.294 49.1509ZM206.923 55.3496C207.964 55.3496 208.81 55.0628 209.461 54.4894C210.112 53.9157 210.45 53.1531 210.476 52.2014H215.767C215.754 53.6353 215.363 54.9522 214.596 56.1514C213.828 57.3378 212.773 58.2633 211.433 58.9282C210.105 59.5799 208.635 59.9058 207.021 59.9058C204.001 59.9058 201.619 58.9477 199.875 57.0313C198.131 55.1021 197.259 52.4425 197.259 49.0532V48.6817C197.259 45.4226 198.125 42.822 199.856 40.8794C201.587 38.9371 203.962 37.966 206.982 37.966C209.624 37.966 211.739 38.7219 213.326 40.2342C214.927 41.7332 215.741 43.7345 215.767 46.2374H210.476C210.45 45.1422 210.112 44.2559 209.461 43.5779C208.81 42.8871 207.951 42.5417 206.884 42.5417C205.569 42.5417 204.574 43.0239 203.897 43.9886C203.233 44.9403 202.901 46.4916 202.901 48.6425V49.2293C202.901 51.4063 203.233 52.9707 203.897 53.9223C204.561 54.8737 205.569 55.3496 206.923 55.3496ZM226.661 51.0281L224.63 53.0619V59.5148H218.988V29.4793H224.63V46.1201L225.724 44.712L231.131 38.357H237.906L230.273 47.176L238.57 59.5148H232.088L226.661 51.0281ZM249.678 59.9058C246.581 59.9058 244.056 58.9541 242.103 57.051C240.164 55.1477 239.194 52.6122 239.194 49.4443V48.8967C239.194 46.7719 239.604 44.875 240.424 43.2063C241.244 41.5246 242.403 40.2342 243.899 39.3348C245.409 38.4221 247.127 37.966 249.053 37.966C251.943 37.966 254.214 38.8784 255.867 40.7034C257.533 42.5286 258.366 45.1164 258.366 48.4664V50.7739H244.915C245.097 52.1558 245.643 53.2638 246.554 54.0981C247.478 54.9324 248.644 55.3496 250.049 55.3496C252.223 55.3496 253.921 54.5611 255.145 52.9837L257.917 56.0927C257.071 57.2921 255.925 58.2308 254.481 58.9085C253.036 59.5735 251.435 59.9058 249.678 59.9058ZM249.034 42.5417C247.915 42.5417 247.004 42.9196 246.301 43.6758C245.611 44.4319 245.168 45.5138 244.973 46.9218H252.821V46.4721C252.795 45.2207 252.457 44.2559 251.806 43.5779C251.156 42.8871 250.231 42.5417 249.034 42.5417ZM268.342 33.1556V38.357H271.954V42.5024H268.342V53.0619C268.342 53.8439 268.492 54.4046 268.791 54.7436C269.09 55.0823 269.663 55.252 270.509 55.252C271.134 55.252 271.687 55.2063 272.168 55.1151V59.3974C271.062 59.7364 269.923 59.9058 268.752 59.9058C264.796 59.9058 262.778 57.9048 262.7 53.9026V42.5024H259.615V38.357H262.7V33.1556H268.342ZM298.582 59.5148H292.726L281.325 40.7818V59.5148H275.468V31.0436H281.325L292.746 49.8158V31.0436H298.582V59.5148ZM313.048 59.9058C309.952 59.9058 307.426 58.9541 305.474 57.051C303.536 55.1477 302.567 52.6122 302.567 49.4443V48.8967C302.567 46.7719 302.975 44.875 303.797 43.2063C304.616 41.5246 305.774 40.2342 307.27 39.3348C308.781 38.4221 310.499 37.966 312.423 37.966C315.314 37.966 317.585 38.8784 319.237 40.7034C320.903 42.5286 321.736 45.1164 321.736 48.4664V50.7739H308.286C308.467 52.1558 309.014 53.2638 309.925 54.0981C310.849 54.9324 312.015 55.3496 313.42 55.3496C315.594 55.3496 317.294 54.5611 318.515 52.9837L321.289 56.0927C320.442 57.2921 319.296 58.2308 317.852 58.9085C316.408 59.5735 314.806 59.9058 313.048 59.9058ZM312.404 42.5417C311.285 42.5417 310.374 42.9196 309.672 43.6758C308.983 44.4319 308.539 45.5138 308.345 46.9218H316.194V46.4721C316.166 45.2207 315.828 44.2559 315.178 43.5779C314.528 42.8871 313.603 42.5417 312.404 42.5417ZM343.33 51.8299L346.101 38.357H351.548L346.159 59.5148H341.436L337.435 46.1982L333.431 59.5148H328.728L323.338 38.357H328.786L331.537 51.8104L335.403 38.357H339.484L343.33 51.8299ZM365.801 53.6681C365.801 52.977 365.456 52.4361 364.765 52.0451C364.09 51.641 362.996 51.2823 361.486 50.9694C356.463 49.9137 353.95 47.7756 353.95 44.5557C353.95 42.6785 354.725 41.1141 356.274 39.8627C357.835 38.5981 359.873 37.966 362.383 37.966C365.065 37.966 367.206 38.5981 368.808 39.8627C370.421 41.1272 371.229 42.7697 371.229 44.7904H365.587C365.587 43.982 365.326 43.3173 364.804 42.7958C364.285 42.2613 363.471 41.9941 362.363 41.9941C361.414 41.9941 360.678 42.209 360.159 42.6393C359.637 43.0695 359.378 43.6171 359.378 44.2821C359.378 44.9078 359.67 45.4162 360.256 45.8072C360.855 46.1851 361.858 46.5177 363.263 46.8045C364.668 47.0781 365.853 47.391 366.817 47.7431C369.796 48.838 371.287 50.735 371.287 53.4334C371.287 55.3626 370.46 56.927 368.808 58.1265C367.153 59.3126 365.02 59.9058 362.402 59.9058C360.633 59.9058 359.059 59.5929 357.679 58.9672C356.313 58.3284 355.238 57.4615 354.458 56.3666C353.678 55.2584 353.286 54.0656 353.286 52.7879H358.634C358.687 53.7919 359.059 54.5611 359.748 55.0954C360.439 55.6299 361.361 55.8972 362.521 55.8972C363.602 55.8972 364.415 55.6953 364.962 55.2909C365.52 54.8737 365.801 54.3328 365.801 53.6681Z" fill="#E1E1E6"/>
<path d="M375.23 56.7382C375.23 55.8385 375.53 55.1085 376.127 54.5481C376.74 53.9874 377.501 53.7071 378.412 53.7071C379.336 53.7071 380.097 53.9874 380.697 54.5481C381.308 55.1085 381.613 55.8385 381.613 56.7382C381.613 57.6245 381.313 58.3481 380.716 58.9085C380.117 59.4561 379.35 59.7298 378.412 59.7298C377.487 59.7298 376.726 59.4561 376.127 58.9085C375.53 58.3481 375.23 57.6245 375.23 56.7382Z" fill="#04D361"/>
</g>
<defs>
<filter id="filter0_d_101_8" x="0" y="0" width="397" height="102" filterUnits="userSpaceOnUse" color-interpolation-filters="sRGB">
<feFlood flood-opacity="0" result="BackgroundImageFix"/>
<feColorMatrix in="SourceAlpha" type="matrix" values="0 0 0 0 0 0 0 0 0 0 0 0 0 0 0 0 0 0 127 0" result="hardAlpha"/>
<feOffset dy="4"/>
<feGaussianBlur stdDeviation="2"/>
<feComposite in2="hardAlpha" operator="out"/>
<feColorMatrix type="matrix" values="0 0 0 0 0 0 0 0 0 0 0 0 0 0 0 0 0 0 0.25 0"/>
<feBlend mode="normal" in2="BackgroundImageFix" result="effect1_dropShadow_101_8"/>
<feBlend mode="normal" in="SourceGraphic" in2="effect1_dropShadow_101_8" result="shape"/>
</filter>
<radialGradient id="paint0_radial_101_8" cx="0" cy="0" r="1" gradientUnits="userSpaceOnUse" gradientTransform="translate(114.548 48.2209) scale(143.645 143.877)">
<stop offset="0.2882" stop-color="#27272E"/>
<stop offset="1" stop-color="#121214"/>
</radialGradient>
<linearGradient id="paint1_linear_101_8" x1="95.1326" y1="20.9809" x2="43.3316" y2="2.85001" gradientUnits="userSpaceOnUse">
<stop offset="0.3276" stop-color="#8157E4"/>
<stop offset="0.395" stop-color="#7D55DD"/>
<stop offset="0.495" stop-color="#724EC9"/>
<stop offset="0.615" stop-color="#6143A8"/>
<stop offset="0.7508" stop-color="#49347A"/>
<stop offset="0.8976" stop-color="#2A2141"/>
<stop offset="1" stop-color="#121214"/>
</linearGradient>
<linearGradient id="paint2_linear_101_8" x1="94.4185" y1="45.9855" x2="48.0592" y2="64.9156" gradientUnits="userSpaceOnUse">
<stop offset="0.3276" stop-color="#8157E4"/>
<stop offset="0.395" stop-color="#7D55DD"/>
<stop offset="0.495" stop-color="#724EC9"/>
<stop offset="0.615" stop-color="#6143A8"/>
<stop offset="0.7508" stop-color="#49347A"/>
<stop offset="0.8976" stop-color="#2A2141"/>
<stop offset="1" stop-color="#121214"/>
</linearGradient>
<clipPath id="clip0_101_8">
<rect width="389" height="94" fill="white" transform="translate(4)"/>
</clipPath>
</defs>
</svg>
